<?xml version="1.0" standalone="no"?>
<!DOCTYPE svg PUBLIC "-//W3C//DTD SVG 20010904//EN"
 "http://www.w3.org/TR/2001/REC-SVG-20010904/DTD/svg10.dtd">
<svg version="1.0" xmlns="http://www.w3.org/2000/svg"
 width="340.000000pt" height="497.000000pt" viewBox="0 0 340.000000 497.000000"
 preserveAspectRatio="xMidYMid meet">

<g transform="translate(0.000000,497.000000) scale(0.100000,-0.100000)"
fill="#000000" stroke="none">
<path d="M1582 4215 c-83 -15 -249 -92 -289 -134 -13 -14 -38 -46 -56 -71 -17
-25 -44 -58 -60 -75 -61 -63 -70 -97 -64 -230 6 -145 29 -238 64 -254 22 -10
30 -31 16 -44 -3 -4 -14 0 -24 9 -10 9 -19 11 -23 5 -4 -5 -2 -12 4 -16 5 -3
10 -3 10 0 0 3 12 -5 26 -19 21 -18 25 -31 21 -52 -3 -17 1 -33 9 -41 12 -12
20 -99 16 -172 0 -8 9 -21 19 -30 14 -11 23 -38 31 -89 16 -109 88 -209 206
-287 23 -15 42 -31 42 -35 0 -4 16 -15 35 -26 19 -10 35 -21 35 -24 0 -4 24
-16 54 -29 53 -22 91 -51 67 -51 -6 0 -11 5 -11 10 0 6 -5 10 -10 10 -6 0 -9
-5 -8 -12 8 -35 -125 -50 -234 -27 -130 28 -283 142 -247 185 20 25 -7 16 -68
-22 -32 -20 -130 -74 -218 -121 -311 -165 -458 -269 -525 -373 -35 -55 -82
-206 -99 -320 -30 -197 -52 -401 -61 -560 -29 -506 -30 -536 -20 -595 5 -33
10 -96 10 -140 0 -63 4 -86 20 -110 11 -16 23 -50 26 -75 10 -65 77 -248 121
-330 l38 -70 962 0 c759 0 962 3 966 13 4 9 6 9 6 0 1 -9 48 -12 190 -12 178
0 189 1 184 18 -2 10 3 42 12 72 77 250 106 364 108 419 1 25 5 47 9 50 8 6
55 235 64 316 6 46 4 54 -10 54 -20 0 -21 14 -1 34 13 13 14 26 5 83 -6 37
-13 82 -16 99 -3 21 -11 34 -24 37 -23 6 -27 27 -5 27 19 0 19 35 1 131 -8 41
-24 126 -36 189 -25 136 -109 463 -120 470 -4 3 -8 17 -8 31 1 48 -44 163 -83
215 -21 29 -57 67 -81 86 -48 39 -227 150 -285 176 -21 10 -49 24 -63 33 -14
9 -63 37 -110 63 -47 27 -99 61 -115 77 -17 16 -38 29 -48 29 -24 0 -40 37
-32 77 3 20 24 59 45 87 70 93 110 193 128 318 8 62 21 120 29 129 16 20 17
46 1 53 -10 3 -8 9 4 19 10 8 25 34 34 58 22 62 54 216 54 260 0 54 -27 165
-53 215 -29 57 -162 209 -214 245 -81 56 -201 71 -351 44z m254 -326 c4 -27
15 -59 25 -71 11 -13 31 -38 46 -57 16 -18 37 -41 47 -50 101 -84 121 -118 56
-91 -43 18 -49 4 -13 -29 31 -28 36 -40 34 -74 -1 -16 -3 -16 -23 3 -12 11
-25 20 -29 20 -4 0 -16 3 -26 6 -15 6 -16 4 -5 -7 18 -20 15 -27 -13 -21 -14
2 -31 -1 -39 -7 -11 -9 -15 -9 -18 0 -6 18 -39 20 -54 4 -19 -19 -17 -27 5
-20 12 3 21 0 25 -10 7 -20 53 -19 64 1 13 24 32 8 32 -25 0 -45 22 -56 54
-26 15 14 31 25 35 25 5 0 13 19 19 43 8 34 10 18 6 -85 -5 -160 -20 -270 -38
-280 -8 -4 -27 -28 -43 -53 -15 -25 -32 -43 -38 -42 -5 2 -18 19 -28 38 -10
19 -34 45 -53 58 -19 13 -53 42 -75 63 -33 32 -38 42 -28 54 6 8 17 14 23 14
6 0 4 -5 -4 -10 -13 -8 -12 -10 3 -10 14 0 16 5 11 28 -4 15 -9 30 -11 35 -9
16 -33 6 -55 -23 -12 -17 -28 -28 -35 -25 -9 3 -13 -2 -11 -13 2 -12 -4 -17
-22 -17 -14 0 -39 -12 -55 -27 -16 -16 -36 -28 -43 -28 -34 0 -84 -35 -102
-71 -11 -21 -20 -40 -20 -43 0 -13 40 -10 80 6 24 11 56 18 70 17 14 -1 33 2
43 6 24 10 127 -1 140 -14 6 -6 21 -11 34 -11 13 0 41 -12 63 -26 22 -15 46
-24 55 -20 25 9 18 0 -48 -67 l-63 -64 -124 4 c-81 2 -128 -1 -137 -9 -10 -8
-19 -6 -38 12 -14 13 -27 31 -31 42 -3 10 -11 18 -19 18 -18 0 -78 77 -70 90
3 5 -1 10 -9 10 -9 0 -16 4 -16 10 0 5 -17 18 -37 27 -59 29 -76 91 -76 285
l0 158 42 41 c24 22 40 43 36 47 -4 4 -10 1 -12 -5 -3 -7 -11 -13 -18 -13 -11
0 -10 10 4 51 15 45 22 53 56 66 22 8 60 18 86 23 89 16 132 32 155 57 13 14
24 29 24 33 0 4 11 8 25 8 20 0 24 -4 20 -19 -10 -30 0 -22 29 21 14 22 31 40
36 40 6 0 10 -19 10 -43 0 -44 -17 -69 -65 -95 -18 -11 -19 -11 -2 -12 52 -1
110 79 106 144 -5 78 37 82 47 5z m-117 -718 c9 -6 10 -10 2 -16 -15 -8 -41 1
-41 15 0 12 20 13 39 1z m221 -537 c1 -45 -140 -112 -186 -86 -15 9 -14 11 9
27 15 9 24 21 21 26 -3 5 0 9 7 9 6 0 18 8 25 18 7 9 16 17 21 17 21 2 53 17
53 26 0 13 49 -23 50 -37z m-940 -54 c0 -5 -5 -10 -11 -10 -5 0 -7 5 -4 10 3
6 8 10 11 10 2 0 4 -4 4 -10z m109 -41 c-19 -12 -24 -2 -8 17 9 11 14 13 17 4
3 -7 -2 -16 -9 -21z m1011 11 c0 -5 -2 -10 -4 -10 -3 0 -8 5 -11 10 -3 6 -1
10 4 10 6 0 11 -4 11 -10z m-855 -60 c3 -5 1 -10 -4 -10 -6 0 -11 5 -11 10 0
6 2 10 4 10 3 0 8 -4 11 -10z m785 -31 c0 -6 -4 -7 -10 -4 -5 3 -10 11 -10 16
0 6 5 7 10 4 6 -3 10 -11 10 -16z m-1090 -4 c0 -8 -7 -15 -15 -15 -8 0 -15 7
-15 15 0 8 7 15 15 15 8 0 15 -7 15 -15z m1265 -25 c3 -5 -1 -10 -9 -10 -9 0
-16 5 -16 10 0 6 4 10 9 10 6 0 13 -4 16 -10z m-345 -20 c0 -5 -8 -10 -17 -10
-15 0 -16 2 -3 10 19 12 20 12 20 0z m-513 -27 c2 -6 -5 -13 -17 -16 -12 -3
-20 0 -20 7 0 26 29 33 37 9z m-607 -3 c0 -5 -9 -10 -21 -10 -11 0 -17 5 -14
10 3 6 13 10 21 10 8 0 14 -4 14 -10z m350 -16 c0 -8 -9 -14 -20 -14 -18 0
-19 3 -10 20 12 22 30 18 30 -6z m430 2 c0 -2 -3 -11 -6 -20 -5 -12 -10 -13
-26 -5 -17 9 -18 13 -7 20 15 9 39 12 39 5z m578 -14 c2 -7 -3 -12 -12 -12 -9
0 -16 7 -16 16 0 17 22 14 28 -4z m252 2 c0 -9 -5 -14 -12 -12 -18 6 -21 28
-4 28 9 0 16 -7 16 -16z m-1455 -14 c3 -5 3 -15 -1 -21 -6 -11 -23 6 -24 24 0
10 18 9 25 -3z m900 -59 c-14 -14 -17 -14 -25 -1 -19 29 -12 41 15 28 23 -11
24 -13 10 -27z m730 29 c3 -5 1 -10 -4 -10 -6 0 -11 5 -11 10 0 6 2 10 4 10 3
0 8 -4 11 -10z m-295 -26 c0 -9 -5 -14 -12 -12 -18 6 -21 28 -4 28 9 0 16 -7
16 -16z m-1720 -9 c0 -8 -4 -15 -10 -15 -5 0 -10 7 -10 15 0 8 5 15 10 15 6 0
10 -7 10 -15z m740 -5 c0 -23 -10 -26 -28 -8 -18 18 -15 28 8 28 13 0 20 -7
20 -20z m760 0 c0 -11 -4 -20 -10 -20 -5 0 -10 2 -10 4 0 2 -3 11 -6 20 -4 11
-1 16 10 16 9 0 16 -8 16 -20z m-410 -27 c0 -25 0 -26 -20 -8 -11 10 -20 22
-20 27 0 4 9 8 20 8 15 0 20 -7 20 -27z m-580 -13 c-21 -14 -30 -12 -30 4 0
18 22 27 35 14 6 -6 5 -12 -5 -18z m-424 -8 c-18 -18 -31 -10 -23 12 4 10 13
13 22 9 15 -5 15 -7 1 -21z m164 14 c0 -21 -20 -30 -33 -17 -9 9 -8 14 3 21
21 14 30 12 30 -4z m1723 -2 c-4 -13 -26 -11 -30 3 -2 6 4 10 14 9 10 -2 17
-7 16 -12z m-1065 -31 c-2 -10 -10 -18 -18 -18 -8 0 -16 8 -18 18 -2 12 3 17
18 17 15 0 20 -5 18 -17z m512 -18 c0 -19 -20 -29 -32 -17 -8 8 -7 16 2 26 14
17 30 12 30 -9z m386 14 c3 -6 2 -15 -2 -19 -12 -12 -38 5 -30 19 9 14 23 14
32 0z m-161 -17 c0 -18 -20 -15 -23 4 -3 10 1 15 10 12 7 -3 13 -10 13 -16z
m-995 -32 c0 -13 -7 -20 -20 -20 -22 0 -28 25 -7 33 22 10 27 7 27 -13z m588
-8 c3 -21 2 -22 -17 -10 -25 16 -28 41 -3 36 9 -2 18 -14 20 -26z m-908 -2 c0
-18 -2 -19 -20 -8 -11 7 -20 16 -20 20 0 5 9 8 20 8 13 0 20 -7 20 -20z m1796
9 c3 -6 2 -15 -4 -21 -7 -7 -14 -3 -21 11 -10 17 -9 21 3 21 8 0 18 -5 22 -11z
m-1081 -58 c-2 -5 -14 -11 -25 -14 -14 -4 -20 0 -20 12 0 10 3 21 6 24 9 9 46
-12 39 -22z m-585 -7 c0 -8 -7 -14 -15 -14 -15 0 -21 21 -9 33 10 9 24 -2 24
-19z m-554 5 c3 -6 1 -16 -5 -22 -9 -9 -14 -8 -21 3 -5 8 -10 18 -10 23 0 11
28 8 36 -4z m132 -17 c3 -16 -1 -19 -17 -15 -21 5 -27 23 -14 37 12 11 28 0
31 -22z m1899 13 c3 -9 3 -19 -1 -22 -7 -7 -36 16 -36 28 0 15 30 10 37 -6z
m-1767 -9 c0 -21 -21 -31 -31 -15 -14 22 -11 29 11 29 11 0 20 -6 20 -14z
m634 -2 c9 -23 8 -24 -14 -24 -19 0 -27 20 -13 33 11 11 20 8 27 -9z m776 -15
c0 -5 -9 -9 -20 -9 -19 0 -27 20 -13 33 7 8 33 -11 33 -24z m200 0 c0 -5 -9
-9 -20 -9 -19 0 -27 20 -13 33 7 8 33 -11 33 -24z m380 -19 c0 -5 -4 -10 -10
-10 -5 0 -10 5 -10 10 0 6 5 10 10 10 6 0 10 -4 10 -10z m-960 -25 c0 -21 -28
-25 -33 -5 -3 10 -3 21 0 24 9 8 33 -6 33 -19z m200 -32 c0 -7 -9 -13 -20 -13
-22 0 -26 20 -8 38 13 13 28 -1 28 -25z m-1439 -6 c-13 -13 -26 -3 -16 12 3 6
11 8 17 5 6 -4 6 -10 -1 -17z m329 2 c0 -4 -9 -13 -20 -19 -17 -9 -20 -8 -20
8 0 10 3 21 6 25 8 8 34 -3 34 -14z m320 -30 c0 -12 -7 -19 -20 -19 -22 0 -26
20 -8 38 15 15 28 6 28 -19z m1290 16 c0 -8 -4 -15 -10 -15 -5 0 -10 7 -10 15
0 8 5 15 10 15 6 0 10 -7 10 -15z m-1012 -7 c19 -19 14 -28 -13 -28 -24 0 -34
18 -18 33 9 10 17 9 31 -5z m770 -11 c2 -11 -3 -15 -17 -14 -21 1 -28 17 -14
31 10 10 28 1 31 -17z m-1248 -13 c0 -8 -4 -12 -10 -9 -5 3 -10 10 -10 16 0 5
5 9 10 9 6 0 10 -7 10 -16z m650 -11 c-1 -19 -18 -33 -33 -27 -20 7 -22 20 -4
27 19 8 37 8 37 0z m1090 -18 c0 -14 -24 -27 -34 -18 -3 3 -1 14 5 25 11 20
29 16 29 -7z m-358 -17 c-9 -9 -15 -9 -24 0 -10 10 -10 15 2 22 9 6 19 5 24 0
7 -7 6 -14 -2 -22z m-463 -17 c16 -10 6 -31 -15 -31 -8 0 -14 9 -14 20 0 22 7
25 29 11z m-1449 -26 c0 -23 -2 -24 -20 -15 -21 11 -25 22 -13 33 15 16 33 6
33 -18z m1683 12 c10 -26 -8 -38 -26 -17 -22 26 -21 30 2 30 10 0 21 -6 24
-13z m634 -13 c-9 -9 -28 6 -21 18 4 6 10 6 17 -1 6 -6 8 -13 4 -17z m-2139
-7 c2 -12 -1 -15 -12 -11 -19 7 -22 38 -3 32 6 -3 13 -12 15 -21z m718 -2 c10
-26 -6 -38 -27 -19 -10 9 -16 21 -13 25 8 14 34 10 40 -6z m-233 -22 c11 -7
-13 -33 -29 -33 -8 0 -14 10 -14 25 0 24 10 25 43 8z m591 -2 c4 -5 3 -17 0
-26 -6 -15 -8 -15 -25 1 -10 9 -16 21 -13 25 7 12 31 11 38 0z m874 -9 c2 -7
-3 -12 -12 -12 -9 0 -16 7 -16 16 0 17 22 14 28 -4z m-1712 -19 c-10 -10 -19
5 -10 18 6 11 8 11 12 0 2 -7 1 -15 -2 -18z m1554 -9 c0 -17 -22 -14 -28 4 -2
7 3 12 12 12 9 0 16 -7 16 -16z m-909 -37 c-8 -8 -15 -6 -25 9 -13 17 -12 20
7 25 25 6 36 -16 18 -34z m529 18 c0 -18 -5 -25 -20 -25 -25 0 -26 18 -2 36
23 18 22 18 22 -11z m250 11 c0 -21 -21 -31 -31 -15 -14 22 -11 29 11 29 11 0
20 -6 20 -14z m528 -4 c2 -7 -3 -12 -12 -12 -9 0 -16 7 -16 16 0 17 22 14 28
-4z m-2310 -54 c2 -13 -14 -16 -47 -9 -2 1 2 8 9 16 15 18 34 15 38 -7z m732
-3 c0 -18 -5 -25 -18 -25 -28 0 -34 11 -15 32 22 25 33 23 33 -7z m607 0 c3
-9 3 -18 0 -21 -9 -9 -48 16 -42 27 9 14 35 11 42 -6z m-1197 -48 c0 -8 -3
-17 -6 -20 -10 -9 -46 12 -39 24 9 14 45 11 45 -4z m1870 -7 c0 -18 -2 -19
-20 -8 -11 7 -20 16 -20 20 0 5 9 8 20 8 13 0 20 -7 20 -20z m250 -17 c0 -26
-1 -26 -17 -10 -16 16 -16 19 -3 27 20 13 20 13 20 -17z m-1723 1 c3 -8 1 -20
-4 -25 -12 -12 -48 14 -39 29 10 17 36 15 43 -4z m588 -4 c0 -8 -8 -16 -17
-18 -13 -2 -18 3 -18 18 0 15 5 20 18 18 9 -2 17 -10 17 -18z m565 -22 c0 -11
-27 -10 -34 1 -4 5 -3 17 1 27 6 16 7 16 20 -2 7 -10 13 -21 13 -26z m-1786
24 c2 -4 1 -13 -3 -20 -5 -9 -12 -7 -26 8 -18 19 -18 20 3 20 11 0 23 -4 26
-8z m1958 -7 c0 -5 -5 -11 -11 -13 -6 -2 -11 4 -11 13 0 9 5 15 11 13 6 -2 11
-8 11 -13z m-962 -41 c0 -7 -8 -10 -20 -7 -22 6 -24 12 -13 39 6 16 7 16 20
-2 7 -10 13 -23 13 -30z m-590 20 c0 -8 -4 -12 -10 -9 -5 3 -10 10 -10 16 0 5
5 9 10 9 6 0 10 -7 10 -16z m969 -43 c12 -8 12 -12 2 -25 -16 -19 -31 -12 -31
15 0 21 7 23 29 10z m211 -32 c0 -12 -7 -19 -20 -19 -23 0 -24 4 -8 29 14 23
28 18 28 -10z m-1275 12 c10 -17 -12 -21 -25 -6 -10 12 -10 15 3 15 9 0 18 -4
22 -9z m-178 -25 c-6 -17 -31 -13 -35 6 -2 12 2 15 18 11 11 -3 19 -11 17 -17z
m1918 6 c0 -18 -20 -15 -23 4 -3 10 1 15 10 12 7 -3 13 -10 13 -16z m245 -7
c0 -8 -7 -15 -15 -15 -16 0 -20 12 -8 23 11 12 23 8 23 -8z m-452 -23 c2 -7
-5 -12 -17 -12 -14 0 -19 5 -14 15 6 17 25 15 31 -3z m-1068 -17 c0 -18 -5
-25 -20 -25 -24 0 -25 8 -3 32 21 23 23 23 23 -7z m-190 -10 c0 -8 -4 -17 -10
-20 -6 -4 -10 5 -10 20 0 15 4 24 10 20 6 -3 10 -12 10 -20z m484 9 c9 -23 8
-24 -19 -24 -23 0 -24 2 -15 20 13 24 26 26 34 4z m159 -55 c-5 -5 -17 -3 -29
5 -18 14 -18 15 6 24 19 7 26 6 28 -5 2 -8 0 -19 -5 -24z m1154 19 c-3 -8 -6
-5 -6 6 -1 11 2 17 5 13 3 -3 4 -12 1 -19z m-427 -4 c0 -8 -4 -12 -10 -9 -5 3
-10 10 -10 16 0 5 5 9 10 9 6 0 10 -7 10 -16z m-1933 -46 c-3 -8 -6 -5 -6 6
-1 11 2 17 5 13 3 -3 4 -12 1 -19z m1493 -9 c0 -4 -7 -9 -15 -13 -15 -5 -39
26 -29 37 7 7 44 -14 44 -24z m-1272 4 c2 -8 -5 -13 -17 -13 -12 0 -21 6 -21
16 0 18 31 15 38 -3z m1477 7 c11 -17 -5 -31 -19 -17 -14 12 -12 27 4 27 5 0
12 -4 15 -10z m405 -35 c0 -8 -4 -15 -10 -15 -5 0 -10 7 -10 15 0 8 5 15 10
15 6 0 10 -7 10 -15z m317 -2 c2 -6 -3 -13 -12 -16 -10 -5 -15 0 -15 14 0 21
21 22 27 2z m-1980 -15 c-3 -8 -6 -5 -6 6 -1 11 2 17 5 13 3 -3 4 -12 1 -19z
m493 5 c0 -5 -4 -14 -8 -21 -7 -9 -13 -8 -27 8 -18 20 -18 20 8 20 15 0 27 -3
27 -7z m-243 -37 c-7 -21 -37 -19 -37 2 0 15 5 19 20 15 12 -3 19 -11 17 -17z
m593 4 c0 -23 -10 -26 -28 -8 -18 18 -15 28 8 28 13 0 20 -7 20 -20z m980 5
c0 -8 -7 -15 -15 -15 -16 0 -20 12 -8 23 11 12 23 8 23 -8z m-435 -25 c3 -5
-1 -10 -9 -10 -9 0 -16 5 -16 10 0 6 4 10 9 10 6 0 13 -4 16 -10z m-218 -46
c-2 -3 -12 -2 -21 2 -16 6 -16 8 1 26 18 20 18 20 21 -2 2 -12 2 -24 -1 -26z
m-507 19 c0 -19 -30 -29 -40 -12 -10 15 1 26 25 26 8 0 15 -6 15 -14z m-570
-23 c0 -13 -5 -18 -15 -14 -16 7 -19 17 -8 27 12 13 23 7 23 -13z m1840 -21
c0 -5 -4 -9 -10 -9 -5 0 -10 7 -10 16 0 8 5 12 10 9 6 -3 10 -10 10 -16z
m-1554 -24 c-3 -9 -12 -12 -21 -9 -14 6 -14 9 2 26 18 20 30 10 19 -17z m604
15 c0 -18 -3 -19 -20 -10 -11 6 -20 15 -20 20 0 6 9 10 20 10 13 0 20 -7 20
-20z m610 -6 c0 -8 -4 -12 -10 -9 -5 3 -10 10 -10 16 0 5 5 9 10 9 6 0 10 -7
10 -16z m-2151 -7 c12 -15 5 -27 -16 -27 -7 0 -13 9 -13 20 0 23 13 26 29 7z
m341 3 c0 -5 -4 -10 -9 -10 -6 0 -13 5 -16 10 -3 6 1 10 9 10 9 0 16 -4 16
-10z m1990 -19 c0 -16 -28 -20 -34 -5 -4 9 1 14 14 14 11 0 20 -4 20 -9z
m-490 -43 c0 -5 -4 -8 -10 -8 -5 0 -10 10 -10 23 0 18 2 19 10 7 5 -8 10 -18
10 -22z m197 15 c3 -7 -4 -9 -16 -6 -12 3 -18 9 -15 15 7 11 26 6 31 -9z
m-697 -23 c0 -4 -9 -10 -20 -13 -14 -4 -20 0 -20 12 0 10 3 21 7 24 7 7 33
-11 33 -23z m-580 -1 c0 -18 -2 -19 -15 -9 -8 7 -15 16 -15 21 0 5 7 9 15 9 9
0 15 -9 15 -21z m1680 -29 c0 -11 -7 -20 -15 -20 -17 0 -18 2 -9 24 9 23 24
20 24 -4z m-1346 -6 c8 -22 8 -24 -8 -24 -18 0 -29 16 -21 30 9 15 22 12 29
-6z m-818 -21 c-7 -7 -26 7 -26 19 0 6 6 6 15 -2 9 -7 13 -15 11 -17z m144 17
c0 -5 -7 -7 -15 -4 -8 4 -15 8 -15 10 0 2 7 4 15 4 8 0 15 -4 15 -10z m-350
-19 c0 -24 -12 -32 -30 -21 -11 7 -11 11 -1 24 18 22 31 20 31 -3z m545 -14
c-20 -11 -29 -3 -21 19 5 13 9 14 22 3 14 -11 14 -13 -1 -22z m859 17 c20 -8
21 -28 1 -44 -12 -10 -15 -10 -15 3 0 8 -3 22 -6 31 -7 18 -4 19 20 10z m656
-14 c0 -5 -4 -10 -10 -10 -5 0 -10 5 -10 10 0 6 5 10 10 10 6 0 10 -4 10 -10z
m-438 -42 c-6 -6 -18 -8 -28 -4 -16 6 -15 8 2 27 16 18 19 18 27 3 6 -10 5
-20 -1 -26z m876 30 c18 -18 15 -28 -8 -28 -13 0 -20 7 -20 20 0 23 10 26 28
8z m-701 -30 c-3 -8 -6 -5 -6 6 -1 11 2 17 5 13 3 -3 4 -12 1 -19z m423 7 c0
-9 -6 -12 -15 -9 -8 4 -15 10 -15 15 0 5 7 9 15 9 8 0 15 -7 15 -15z m-1380
-45 c0 -11 -7 -20 -15 -20 -17 0 -18 2 -9 24 9 23 24 20 24 -4z m-183 -12 c-3
-8 -6 -5 -6 6 -1 11 2 17 5 13 3 -3 4 -12 1 -19z m1263 12 c0 -5 -7 -7 -15 -4
-8 4 -15 8 -15 10 0 2 7 4 15 4 8 0 15 -4 15 -10z m-821 -19 c9 -16 7 -20 -14
-23 -26 -5 -29 -1 -19 26 8 21 21 20 33 -3z m-979 -16 c11 -13 10 -14 -4 -9
-9 3 -16 10 -16 15 0 13 6 11 20 -6z m1154 -18 c-7 -19 -29 -23 -39 -6 -8 13
27 41 38 30 4 -4 5 -15 1 -24z m1083 -39 c-18 -11 -29 2 -16 18 10 12 14 12
20 2 4 -7 3 -16 -4 -20z m-797 -9 c0 -14 -33 -20 -42 -7 -17 27 -10 38 17 26
14 -6 25 -15 25 -19z m200 10 c0 -18 -2 -19 -15 -9 -8 7 -15 16 -15 21 0 5 7
9 15 9 9 0 15 -9 15 -21z m420 11 c0 -5 -4 -10 -10 -10 -5 0 -10 5 -10 10 0 6
5 10 10 10 6 0 10 -4 10 -10z m-1590 -16 c0 -17 -22 -14 -28 4 -2 7 3 12 12
12 9 0 16 -7 16 -16z m-652 -27 c2 -12 -3 -17 -17 -17 -23 0 -24 1 -15 25 8
19 28 15 32 -8z m2022 7 c0 -8 -4 -12 -10 -9 -5 3 -10 10 -10 16 0 5 5 9 10 9
6 0 10 -7 10 -16z m-1743 -20 c2 -6 -5 -14 -16 -17 -24 -6 -31 0 -24 19 6 17
34 15 40 -2z m767 -3 c4 -5 3 -16 0 -25 -6 -15 -8 -15 -19 1 -13 18 -11 33 5
33 5 0 11 -4 14 -9z m-206 -23 c-6 -18 -25 -20 -31 -3 -5 10 0 15 14 15 12 0
19 -5 17 -12z m-404 -13 c-4 -8 -12 -15 -20 -15 -20 0 -17 18 4 23 9 3 18 5
19 6 1 0 0 -6 -3 -14z m976 -5 c0 -23 -10 -26 -28 -8 -18 18 -15 28 8 28 13 0
20 -7 20 -20z m319 -54 c-6 -6 -13 -6 -21 2 -8 8 -8 15 2 28 13 15 15 14 21
-3 4 -10 3 -22 -2 -27z m741 29 c0 -8 -9 -15 -20 -15 -22 0 -27 15 -7 23 21 9
27 7 27 -8z m-2328 -40 c-6 -30 -12 -32 -27 -11 -17 22 -10 39 13 34 11 -2 16
-11 14 -23z m1067 3 c-11 -21 -32 -20 -37 3 -1 9 7 15 23 15 21 2 23 -1 14
-18z m912 9 c-1 -12 -15 -9 -19 4 -3 6 1 10 8 8 6 -3 11 -8 11 -12z m-2151
-12 c0 -8 -2 -15 -4 -15 -2 0 -6 7 -10 15 -3 8 -1 15 4 15 6 0 10 -7 10 -15z
m611 2 c-1 -12 -15 -9 -19 4 -3 6 1 10 8 8 6 -3 11 -8 11 -12z m1699 -2 c0 -9
-6 -12 -15 -9 -8 4 -15 10 -15 15 0 5 7 9 15 9 8 0 15 -7 15 -15z m-1324 -43
c-4 -3 -11 -1 -18 6 -8 8 -8 15 3 28 13 16 14 16 17 -5 2 -13 1 -25 -2 -29z
m594 8 c0 -13 -5 -17 -20 -13 -22 6 -27 29 -7 36 18 6 27 -1 27 -23z m1035
-58 c-11 -11 -25 15 -19 33 7 17 8 16 16 -5 5 -13 6 -25 3 -28z m-735 18 c0
-11 -4 -20 -10 -20 -5 0 -10 9 -10 20 0 11 5 20 10 20 6 0 10 -9 10 -20z
m-1060 -14 c0 -9 -7 -12 -20 -9 -11 3 -17 9 -14 14 8 14 34 10 34 -5z m-750
-26 c0 -11 -7 -20 -15 -20 -15 0 -21 21 -8 33 12 13 23 7 23 -13z m1299 1 c9
-16 7 -20 -14 -23 -19 -4 -25 -1 -25 12 0 33 24 40 39 11z m1066 -11 c3 -5 -1
-10 -10 -10 -9 0 -13 5 -10 10 3 6 8 10 10 10 2 0 7 -4 10 -10z m-1311 -52
c-8 -13 -35 4 -30 19 3 8 6 20 6 26 1 7 7 1 14 -13 8 -14 12 -28 10 -32z m401
-23 c0 -10 -6 -20 -12 -22 -8 -3 -13 5 -13 22 0 17 5 25 13 23 6 -3 12 -13 12
-23z m200 -15 c-6 -10 -35 -14 -35 -5 0 3 6 14 12 25 11 16 14 17 21 5 4 -8 5
-20 2 -25z m205 31 c0 -6 -4 -13 -10 -16 -5 -3 -10 1 -10 9 0 9 5 16 10 16 6
0 10 -4 10 -9z m408 -28 c6 -19 -25 -16 -32 3 -4 11 -1 14 11 12 9 -2 18 -9
21 -15z m-1558 -22 c0 -17 -18 -21 -24 -6 -3 9 0 15 9 15 8 0 15 -4 15 -9z
m170 -11 c0 -11 -7 -20 -15 -20 -13 0 -14 4 -5 20 6 11 13 20 15 20 3 0 5 -9
5 -20z m-880 -44 c-14 -14 -24 0 -16 21 6 15 8 15 16 3 6 -9 5 -19 0 -24z
m2480 14 c0 -11 -4 -20 -10 -20 -5 0 -10 2 -10 4 0 2 -3 11 -6 20 -4 11 -1 16
10 16 9 0 16 -8 16 -20z m-1351 -13 c13 -16 5 -27 -21 -27 -18 0 -25 20 -11
33 10 10 19 8 32 -6z m181 -21 c0 -16 -14 -36 -25 -36 -20 0 -30 21 -14 31 15
9 39 12 39 5z m878 -7 c-2 -6 -8 -10 -13 -10 -5 0 -11 4 -13 10 -2 6 4 11 13
11 9 0 15 -5 13 -11z m-398 -19 c0 -13 -5 -18 -15 -14 -8 4 -15 12 -15 20 0 8
7 14 15 14 8 0 15 -9 15 -20z m575 -9 c-4 -12 -12 -18 -21 -14 -20 7 -18 31 4
35 23 6 25 3 17 -21z m-2177 -13 c3 -14 0 -15 -22 -5 -13 6 -22 15 -19 20 8
14 38 3 41 -15z m172 7 c0 -8 -7 -15 -15 -15 -26 0 -18 20 13 29 1 1 2 -6 2
-14z m1225 -15 c0 -22 -29 -18 -33 3 -3 14 1 18 15 15 10 -2 18 -10 18 -18z
m-765 -31 c0 -5 -4 -9 -10 -9 -5 0 -10 7 -10 16 0 8 5 12 10 9 6 -3 10 -10 10
-16z m1075 11 c-3 -5 -10 -10 -16 -10 -5 0 -9 5 -9 10 0 6 7 10 16 10 8 0 12
-4 9 -10z m-1895 -26 c0 -8 -4 -12 -10 -9 -5 3 -10 10 -10 16 0 5 5 9 10 9 6
0 10 -7 10 -16z m1008 -12 c2 -12 0 -22 -5 -22 -12 0 -33 37 -26 44 12 12 28
0 31 -22z m-512 -19 c-11 -11 -19 6 -11 24 8 17 8 17 12 0 3 -10 2 -21 -1 -24z
m884 -8 c0 -29 -8 -32 -26 -7 -19 24 -17 32 6 32 15 0 20 -7 20 -25z m-1262
-14 c3 -8 -1 -12 -9 -9 -7 2 -15 10 -17 17 -3 8 1 12 9 9 7 -2 15 -10 17 -17z
m178 -8 c-10 -10 -19 5 -10 18 6 11 8 11 12 0 2 -7 1 -15 -2 -18z m374 11 c0
-14 -3 -14 -15 -4 -8 7 -15 14 -15 16 0 2 7 4 15 4 8 0 15 -7 15 -16z m1040
-3 c0 -24 -18 -37 -32 -23 -8 8 -7 16 2 27 17 21 30 19 30 -4z m255 -11 c3 -5
-3 -10 -15 -10 -12 0 -18 5 -15 10 3 6 10 10 15 10 5 0 12 -4 15 -10z m481
-27 c-11 -11 -17 4 -9 23 7 18 8 18 11 1 2 -10 1 -21 -2 -24z m-1268 -13 c-2
-8 -10 -15 -18 -15 -8 0 -16 7 -18 15 -2 10 5 16 18 16 13 0 20 -6 18 -16z
m1036 11 c4 -5 3 -17 -1 -27 -6 -16 -7 -16 -20 2 -7 10 -13 21 -13 26 0 11 27
10 34 -1z m56 -15 c0 -19 -4 -23 -20 -19 -25 7 -25 12 -2 29 22 18 22 18 22
-10z m-1357 -15 c-3 -12 -11 -17 -19 -14 -17 6 -18 15 -2 31 15 15 27 6 21
-17z m610 -5 c3 -8 3 -17 0 -20 -9 -9 -44 14 -38 25 9 14 32 11 38 -5z m-1473
-17 c0 -5 -4 -9 -10 -9 -5 0 -10 7 -10 16 0 8 5 12 10 9 6 -3 10 -10 10 -16z
m720 0 c0 -11 -4 -17 -10 -14 -5 3 -10 13 -10 21 0 8 5 14 10 14 6 0 10 -9 10
-21z m1060 -11 c0 -5 -7 -8 -15 -8 -15 0 -20 21 -8 33 7 7 23 -11 23 -25z
m-1320 -8 c0 -22 -8 -25 -30 -10 -13 9 -13 11 0 20 22 15 30 12 30 -10z m800
-63 c0 -6 -3 -7 -6 -4 -4 3 -15 2 -25 -4 -22 -11 -23 -6 -8 22 8 16 13 18 25
8 8 -6 14 -16 14 -22z m-700 9 c0 -8 -4 -18 -10 -21 -5 -3 -10 -4 -10 -1 0 2
-3 11 -6 20 -4 11 -1 16 10 16 9 0 16 -6 16 -14z m-434 -21 c8 -21 -6 -41 -17
-24 -12 19 -11 39 1 39 6 0 13 -7 16 -15z m884 -37 c0 -10 -11 -10 -28 0 -7 5
-10 16 -6 27 7 17 8 17 21 -1 7 -10 13 -21 13 -26z m820 21 c0 -5 -7 -9 -15
-9 -15 0 -20 12 -9 23 8 8 24 -1 24 -14z m-1500 2 c0 -5 -7 -14 -15 -21 -16
-14 -18 -10 -9 14 6 17 24 22 24 7z m1088 -39 c-5 -23 -25 -25 -31 -3 -6 24 0
31 19 24 8 -3 14 -12 12 -21z m193 -15 c-17 -17 -24 -1 -10 25 12 21 14 21 17
4 2 -10 -1 -23 -7 -29z m-924 11 c-3 -8 -6 -5 -6 6 -1 11 2 17 5 13 3 -3 4
-12 1 -19z"/>
<path d="M1535 3668 c17 -6 36 -15 43 -21 7 -5 12 -6 12 0 0 18 -25 33 -54 32
l-31 -1 30 -10z"/>
<path d="M1853 3653 c-7 -3 -13 -9 -13 -14 0 -11 31 -12 48 0 11 6 10 9 -5 13
-10 3 -24 3 -30 1z"/>
<path d="M1383 3562 c-6 -4 -15 -20 -18 -35 -8 -30 14 -56 48 -57 13 0 16 6
13 25 -5 25 7 34 19 15 16 -26 65 2 65 38 0 14 -43 20 -68 11 -12 -5 -24 -4
-27 1 -7 12 -16 12 -32 2z"/>
<path d="M1848 3553 c7 -3 16 -2 19 1 4 3 -2 6 -13 5 -11 0 -14 -3 -6 -6z"/>
<path d="M1745 3530 c-3 -5 -1 -10 4 -10 6 0 11 5 11 10 0 6 -2 10 -4 10 -3 0
-8 -4 -11 -10z"/>
<path d="M1322 3510 c0 -14 2 -19 5 -12 2 6 2 18 0 25 -3 6 -5 1 -5 -13z"/>
<path d="M1762 3470 c0 -14 2 -19 5 -12 2 6 2 18 0 25 -3 6 -5 1 -5 -13z"/>
<path d="M1616 3423 c-6 -14 -5 -15 5 -6 7 7 10 15 7 18 -3 3 -9 -2 -12 -12z"/>
<path d="M1770 3434 c0 -6 7 -19 15 -30 8 -10 14 -14 14 -9 0 6 -6 19 -14 29
-8 11 -15 15 -15 10z"/>
<path d="M1624 3315 c-9 -23 4 -34 36 -32 35 2 37 8 12 30 -23 21 -41 22 -48
2z"/>
<path d="M1657 3034 c-14 -14 15 -44 42 -44 36 0 62 27 40 41 -16 10 -73 12
-82 3z"/>
</g>
</svg>
